<?xml version="1.0" encoding="UTF-8"?>
<svg width="56px" height="44px" viewBox="0 0 56 44" version="1.1" xmlns="http://www.w3.org/2000/svg" xmlns:xlink="http://www.w3.org/1999/xlink">
    <!-- Generator: Sketch 52.3 (67297) - http://www.bohemiancoding.com/sketch -->
    <title>Group 25</title>
    <desc>Created with Sketch.</desc>
    <g id="NUEVAS-TRAMAS-Y-COLORES" stroke="none" stroke-width="1" fill="none" fill-rule="evenodd">
        <g id="header" transform="translate(-437.000000, -139.000000)" fill="#69DFE2">
            <g id="Group-25" transform="translate(437.000000, 139.000000)">
                <polygon id="Fill-1" points="16.1767915 0.000182068966 -5.95744681e-05 7.80032 -5.95744681e-05 36.1008166 16.1767915 43.9003476"></polygon>
                <polygon id="Fill-2" points="51.3852426 17.9479641 51.3852426 24.3628607 53.752434 24.3085434 53.752434 25.8555228 49.9301362 25.9999641 49.9301362 17.8924331"></polygon>
                <polygon id="Fill-3" points="48.2471872 8.39155862 48.2471872 14.9976276 50.7579532 15.1581517 50.7579532 16.7527724 46.7059957 16.5537103 46.7059957 8.19856552"></polygon>
                <polygon id="Fill-4" points="48.9157319 17.85432 48.9157319 19.4738234 46.0981574 19.409189 46.0981574 21.0705683 48.6032638 21.0905959 48.6032638 22.6906786 46.0981574 22.7082786 46.0981574 24.4843614 49.0170085 24.4172993 49.0170085 26.0352855 44.4923277 26.2070372 44.4923277 17.6865131"></polygon>
                <path d="M34.3566851,17.3018014 L36.827834,26.4981048 L34.888983,26.5712359 L34.5297489,25.1168083 L31.934983,25.1841738 L31.5730681,26.6971669 L29.5603447,26.7736359 L32.2391106,17.2213876 L34.3566851,17.3018014 Z M32.3654085,23.4059669 L34.1171957,23.3856359 L33.2402596,19.77096 L32.3654085,23.4059669 Z" id="Fill-5"></path>
                <polygon id="Fill-6" points="28.8035404 28.2168359 28.8035404 30.1385738 26.5778383 30.2811945 26.5778383 38.2060497 24.3527319 38.4846152 24.3527319 30.4235117 21.9506894 30.5770566 21.9506894 28.5527531"></polygon>
                <polygon id="Fill-7" points="32.1831106 6.3844 30.3020468 15.750331 28.3670681 15.6553517 27.2846 9.40886897 26.2000468 15.5488414 24.1331106 15.4477931 21.9988553 5.11204138 24.3228553 5.40244138 25.2846851 11.7205379 26.3358766 5.65369655 28.3354936 5.90404138 29.3423021 12.0519034 30.2475362 6.14285517"></polygon>
                <g id="Group-24" transform="translate(22.638298, 6.576331)">
                    <path d="M12.529166,22.0438179 C12.6733362,22.1764248 12.799634,22.3223834 12.907166,22.48048 C13.0146979,22.6394869 13.1043574,22.8106317 13.1761447,22.9951283 C13.2473362,23.1793214 13.3009532,23.3768662 13.3366979,23.5871559 C13.3721447,23.797749 13.390017,24.0213903 13.390017,24.2583834 L13.390017,27.4797903 C13.390017,27.7167834 13.3721447,27.9437628 13.3366979,28.1604248 C13.3009532,28.3770869 13.2473362,28.5840386 13.1761447,28.7809766 C13.1043574,28.9785214 13.0146979,29.1666593 12.907166,29.3453903 C12.799634,29.5247283 12.6733362,29.6949628 12.529166,29.8563972 C12.3870809,30.0135834 12.2330809,30.1549903 12.0659745,30.2809214 C11.8982723,30.4068524 11.7183574,30.5173076 11.5262298,30.6113766 C11.3332085,30.7063559 11.1282723,30.7855559 10.9105277,30.8480662 C10.6921872,30.91088 10.461634,30.9582179 10.2188681,30.9888662 C9.97550638,31.0195145 9.74286809,31.0307421 9.52065532,31.0228524 C9.29725106,31.0149628 9.08516596,30.9870455 8.88410213,30.940011 C8.68214468,30.8929766 8.49150638,30.8259145 8.31278298,30.7391283 C8.13316596,30.6523421 7.96546383,30.5458317 7.8096766,30.4186869 C7.65627234,30.2869903 7.52163404,30.1407283 7.40516596,29.9802041 C7.28899574,29.8190731 7.19159149,29.64368 7.11295319,29.4537214 C7.03431489,29.2631559 6.97533617,29.0583283 6.93601702,28.8383283 C6.89580426,28.6183283 6.87614468,28.3834593 6.87614468,28.1337214 L6.87614468,24.7381352 C6.87614468,24.2265214 6.95269787,23.7607283 7.10193191,23.3483421 C7.25057021,22.9371697 7.47099574,22.5794041 7.75874043,22.2832386 C8.04499574,21.98768 8.39797447,21.7540248 8.81171915,21.5871283 C9.22278298,21.4220524 9.6931234,21.3234317 10.2188681,21.298549 C10.461634,21.2870179 10.6921872,21.2933903 10.9105277,21.31888 C11.1282723,21.3443697 11.3332085,21.3880662 11.5262298,21.4499697 C11.7183574,21.5121766 11.8982723,21.5928938 12.0659745,21.6915145 C12.2330809,21.7901352 12.3870809,21.9075697 12.529166,22.0438179 M11.4788681,27.6293903 L11.4788681,24.4416662 C11.4788681,24.2322869 11.448783,24.0444524 11.3915915,23.8818041 C11.3341021,23.7188524 11.2501021,23.5798731 11.1410809,23.4694179 C11.0323574,23.3580524 10.8992085,23.2743007 10.7452085,23.2221076 C10.5897191,23.1687007 10.4136766,23.146549 10.2188681,23.1589903 C10.0240596,23.1714317 9.84652766,23.2157352 9.68984681,23.2888662 C9.53227234,23.3619972 9.39644255,23.4642593 9.28444255,23.5917076 C9.17274043,23.7188524 9.08516596,23.8714869 9.02618723,24.0462731 C8.96661277,24.2204524 8.93474043,24.4161766 8.93474043,24.6298041 L8.93474043,27.8842869 C8.93474043,28.097611 8.96661277,28.2875697 9.02618723,28.4514317 C9.08516596,28.6146869 9.17274043,28.752149 9.28444255,28.8598731 C9.39644255,28.9669903 9.53227234,29.04528 9.68984681,29.0907972 C9.84652766,29.1366179 10.0240596,29.1496662 10.2188681,29.1281214 C10.4136766,29.1065766 10.5897191,29.0543834 10.7452085,28.9745766 C10.8992085,28.8950731 11.0323574,28.7888662 11.1410809,28.6589903 C11.2501021,28.5297214 11.3341021,28.37648 11.3915915,28.2041214 C11.448783,28.0311559 11.4788681,27.8387697 11.4788681,27.6293903" id="Fill-8"></path>
                    <path d="M6.31111064,11.4044662 C6.46749362,11.5531559 6.60451489,11.7130731 6.72217447,11.8833076 C6.83894043,12.0535421 6.93634468,12.2350041 7.01498298,12.4267834 C7.09302553,12.6182593 7.15200426,12.8215697 7.19102553,13.0345903 C7.23034468,13.2479145 7.25000426,13.4721628 7.25000426,13.7076386 C7.25000426,13.9525214 7.23034468,14.1855697 7.19102553,14.4067834 C7.15200426,14.6286041 7.09302553,14.8385903 7.01498298,15.0364386 C6.93634468,15.2345903 6.83894043,15.421211 6.72217447,15.5959972 C6.60451489,15.7710869 6.46749362,15.9346455 6.31111064,16.0860662 C6.15413191,16.2380938 5.98642979,16.3713076 5.80651489,16.486011 C5.62689787,16.6010179 5.43536596,16.6969076 5.23251489,16.7745903 C5.02877021,16.8522731 4.81311064,16.9114455 4.58613191,16.9515007 C4.35766383,16.9918593 4.1178766,17.014011 3.86557872,17.017349 L2.41285532,17.0355559 L2.41285532,20.3686317 L0.135323404,20.454811 L0.135323404,10.2859559 L3.86557872,10.4276662 C4.1178766,10.4373766 4.35766383,10.4649903 4.58613191,10.5111145 C4.81311064,10.5569352 5.02877021,10.6209628 5.23251489,10.7028938 C5.43536596,10.7845214 5.62689787,10.883749 5.80651489,11.0011834 C5.98642979,11.118011 6.15413191,11.2524386 6.31111064,11.4044662 Z M3.66838723,15.1056248 C3.89179149,15.1062317 4.09285532,15.0728524 4.26800426,15.0094317 C4.44345106,14.9457076 4.5938766,14.8522455 4.71570638,14.7323834 C4.83783404,14.6128248 4.93255745,14.4665628 4.9966,14.2969352 C5.06004681,14.1279145 5.09340851,13.9355283 5.09340851,13.7234179 C5.09340851,13.5146455 5.06004681,13.3252938 4.9966,13.1577903 C4.93255745,12.9899834 4.83783404,12.8446317 4.71570638,12.7244662 C4.5938766,12.6043007 4.44345106,12.5093214 4.26800426,12.4431697 C4.09285532,12.3767145 3.89179149,12.3393903 3.66838723,12.3342317 L2.41285532,12.3047972 L2.41285532,15.1028938 L3.66838723,15.1056248 Z" id="Fill-10"></path>
                    <path d="M15.6222128,1.26759448 C15.759234,1.42022897 15.8789787,1.58227034 15.9814468,1.75493241 C16.0839149,1.92607724 16.1685106,2.10814621 16.2370213,2.29931862 C16.3043404,2.49109793 16.3555745,2.69258759 16.3895319,2.90348414 C16.4228936,3.11468414 16.4401702,3.33589793 16.4401702,3.56651862 L16.4401702,6.70690483 C16.4401702,6.93782897 16.4228936,7.15570483 16.3895319,7.36083586 C16.3555745,7.56627034 16.3043404,7.75865655 16.2370213,7.93890483 C16.1685106,8.11945655 16.0839149,8.28787034 15.9814468,8.44384276 C15.8789787,8.60042207 15.759234,8.7451669 15.6222128,8.87838069 C15.4875745,9.00825655 15.3404255,9.12053241 15.1822553,9.21520828 C15.0231915,9.31049103 14.8528085,9.38817379 14.6699149,9.4479531 C14.4873191,9.50803586 14.2925106,9.55051862 14.086383,9.57540138 C13.8799574,9.59998069 13.661617,9.60726345 13.4316596,9.59603586 C13.2005106,9.58511172 12.9788936,9.55689103 12.768,9.51137379 C12.5559149,9.46646345 12.3542553,9.40364966 12.1633191,9.32353931 C11.9717872,9.24373241 11.7906809,9.14602207 11.6208936,9.03101517 C11.4511064,8.91570483 11.2917447,8.78309793 11.1442979,8.63258759 C10.9989362,8.47904276 10.8714468,8.3139669 10.7618298,8.1379669 C10.6513191,7.96166345 10.5595745,7.77443586 10.4854043,7.57658759 C10.4115319,7.37782897 10.3558298,7.1687531 10.3185957,6.94814621 C10.2810638,6.72723586 10.2622979,6.49540138 10.2622979,6.25203586 L10.2622979,2.94657379 C10.2622979,2.44982897 10.3346809,2.00952552 10.4761702,1.63294621 C10.6164681,1.25727724 10.8252766,0.94593931 11.0981277,0.705001379 C11.3691915,0.464973793 11.7034043,0.295346207 12.0957021,0.201884138 C12.485617,0.108725517 12.9327234,0.0911255172 13.4316596,0.154242759 C13.661617,0.183070345 13.8799574,0.22798069 14.086383,0.288973793 C14.2925106,0.349663448 14.4873191,0.426435862 14.6699149,0.519291034 C14.8528085,0.611842759 15.0231915,0.72078069 15.1822553,0.845497931 C15.3404255,0.969911724 15.4875745,1.11040828 15.6222128,1.26759448 M14.6249362,6.53211862 L14.6249362,3.42541517 C14.6249362,3.22180138 14.5966383,3.0339669 14.5418298,2.86616 C14.4879149,2.69774621 14.4077872,2.54844966 14.3047234,2.42191172 C14.2016596,2.29537379 14.0753617,2.19220138 13.9294043,2.11512552 C13.7831489,2.03744276 13.6160426,1.9867669 13.4316596,1.96643586 C13.246383,1.94610483 13.0768936,1.95976 12.9282553,2.0043669 C12.7784255,2.04988414 12.6494468,2.1263531 12.5431064,2.2319531 C12.436766,2.3375531 12.3536596,2.47137379 12.2973617,2.63129103 C12.2410638,2.79120828 12.2109787,2.97661517 12.2109787,3.18417379 L12.2109787,6.35338759 C12.2109787,6.56124966 12.2410638,6.75181517 12.2973617,6.92144276 C12.3536596,7.09046345 12.436766,7.23854621 12.5431064,7.36265655 C12.6494468,7.48585655 12.7784255,7.58447724 12.9282553,7.65548414 C13.0768936,7.72618759 13.246383,7.76927724 13.4316596,7.78080828 C13.6160426,7.79264276 13.7831489,7.77109793 13.9294043,7.71951172 C14.0753617,7.66792552 14.2016596,7.58660138 14.3047234,7.47827034 C14.4077872,7.37054621 14.4879149,7.23551172 14.5418298,7.07680828 C14.5966383,6.91840828 14.6249362,6.73573241 14.6249362,6.53211862" id="Fill-12"></path>
                    <path d="M21.9996298,6.41793103 L23.1428638,9.93216552 L21.3711191,9.84537931 L20.3875447,6.73442759 L19.3869915,6.65856552 L19.3869915,9.74827586 L17.6626085,9.66361379 L17.6626085,0.822648276 L20.5251617,1.18011034 C20.7146085,1.20377931 20.8948213,1.24171034 21.0658,1.29451034 C21.2367787,1.34731034 21.3982255,1.41437241 21.5519277,1.496 C21.7044383,1.57762759 21.8486085,1.67351724 21.985034,1.78397241 C22.120566,1.89412414 22.2486511,2.01884138 22.3683957,2.15842759 C22.4878426,2.29588966 22.5920979,2.44033103 22.680566,2.59235862 C22.7696298,2.74377931 22.8432043,2.9033931 22.902183,3.0705931 C22.960566,3.23748966 23.0046511,3.41197241 23.0335447,3.59464828 C23.0627362,3.77732414 23.077034,3.96788966 23.077034,4.16695172 C23.077034,4.43307586 23.0546936,4.67917241 23.0109064,4.90463448 C22.9662255,5.13070345 22.9000979,5.33613793 22.8104383,5.52275862 C22.7213745,5.70998621 22.6093745,5.87748966 22.4747362,6.02587586 C22.3392043,6.17517241 22.181034,6.30565517 21.9996298,6.41793103 Z M20.3407787,5.06151724 C20.5111617,5.0769931 20.6636723,5.06394483 20.797417,5.0248 C20.9311617,4.98504828 21.0452468,4.92041379 21.1387787,4.8318069 C21.2317149,4.74411034 21.3035021,4.63213793 21.3526511,4.49953103 C21.4009064,4.36722759 21.4265234,4.21428966 21.4265234,4.04162759 C21.4265234,3.87564138 21.4009064,3.72118621 21.3526511,3.5816 C21.3035021,3.44262069 21.2317149,3.31911724 21.1387787,3.21291034 C21.0452468,3.10761379 20.9311617,3.02022069 20.797417,2.95497931 C20.6636723,2.88913103 20.5111617,2.84482759 20.3407787,2.82601379 L19.3869915,2.72132414 L19.3869915,4.97473103 L20.3407787,5.06151724 Z" id="Fill-14"></path>
                    <path d="M17.8784766,10.9592469 C18.3372,10.9768469 18.745583,11.0648469 19.0994553,11.2156607 C19.4515404,11.3652607 19.7506043,11.5776745 19.9927745,11.8453159 C20.2337532,12.11144 20.4193277,12.4333986 20.5441362,12.803909 C20.6680511,13.1732055 20.7326894,13.5922676 20.7326894,14.0541159 L20.7326894,16.6862262 C20.7326894,17.1483779 20.6680511,17.5671366 20.5441362,17.93704 C20.4193277,18.3072469 20.2337532,18.6289021 19.9927745,18.8956331 C19.7506043,19.1632745 19.4515404,19.3753848 19.0994553,19.5252883 C18.745583,19.6761021 18.3372,19.7641021 17.8784766,19.7810952 L14.9789872,19.8915503 L14.9789872,10.8490952 L17.8784766,10.9592469 Z M19.0461362,16.6661986 L19.0461362,14.0744469 C19.0461362,13.8617297 19.0205191,13.6711641 18.9704766,13.5051779 C18.9198383,13.3382814 18.8450723,13.1953572 18.7464766,13.0785297 C18.6478809,12.9610952 18.5254553,12.8703641 18.3806894,12.8072469 C18.2359234,12.7438262 18.0679234,12.7092331 17.8784766,12.7046814 L16.7858809,12.6797986 L16.7858809,18.0611503 L17.8784766,18.0356607 C18.0679234,18.0317159 18.2359234,17.9965159 18.3806894,17.9333986 C18.5254553,17.8705848 18.6478809,17.7792469 18.7464766,17.6624193 C18.8450723,17.5455917 18.9198383,17.4026676 18.9704766,17.235771 C19.0205191,17.0691779 19.0461362,16.8786124 19.0461362,16.6661986 Z" id="Fill-16"></path>
                    <path d="M20.2254723,20.9511917 L20.2254723,26.7922676 C20.2254723,27.0162124 20.2105787,27.2295366 20.1798979,27.4331503 C20.1498128,27.637371 20.1036426,27.8318814 20.0422809,28.0172883 C19.9809191,28.2029986 19.9037702,28.3793021 19.8105362,28.547109 C19.7170043,28.7152193 19.607983,28.8745297 19.481983,29.0253434 C19.3589617,29.1716055 19.2255149,29.303909 19.0813447,29.4207366 C18.9368766,29.5375641 18.7822809,29.6398262 18.6166638,29.7272193 C18.4504511,29.814309 18.2744085,29.8865297 18.0873447,29.9438814 C17.8996851,30.0006262 17.7013021,30.0425021 17.4924936,30.0685986 C17.2830894,30.0953021 17.0826213,30.1037986 16.8916851,30.0934814 C16.7001532,30.083771 16.5175574,30.0561572 16.3450894,30.0094262 C16.1717277,29.9629986 16.0081957,29.8977572 15.8544936,29.8149159 C15.7007915,29.7314676 15.5560255,29.629509 15.4216851,29.5087366 C15.2903234,29.3834124 15.1744511,29.24504 15.0749617,29.0930124 C14.9751745,28.9409848 14.892366,28.7753021 14.8253447,28.5953572 C14.759217,28.4160193 14.7088766,28.2233297 14.6755149,28.0163779 C14.6415574,27.8091228 14.6248766,27.5885159 14.6248766,27.3542538 L14.6248766,21.2258124 L16.4401106,21.1365986 L16.4401106,27.1312193 C16.4401106,27.3321021 16.4651319,27.51144 16.5136851,27.6655917 C16.5622383,27.8206538 16.6334298,27.9505297 16.7245787,28.0530952 C16.8160255,28.1556607 16.9280255,28.2312193 17.0567064,28.2761297 C17.1850894,28.3207366 17.3316426,28.3362124 17.4924936,28.3180055 C17.6530468,28.3004055 17.7978128,28.253371 17.9253021,28.18024 C18.0516,28.1077159 18.1609191,28.0093986 18.249983,27.8886262 C18.3390468,27.7678538 18.4078553,27.6249297 18.4549191,27.4631917 C18.5016851,27.3008469 18.5261106,27.1199917 18.5261106,26.9230538 L18.5261106,21.03464 L20.2254723,20.9511917 Z" id="Fill-18"></path>
                    <path d="M25.5887532,25.5775338 L26.657817,28.7916579 L24.9974766,28.9992166 L24.0770511,26.1531752 L23.1426255,26.2445131 L23.1426255,29.2307476 L21.5278596,29.4325407 L21.5278596,20.8874372 L24.207817,20.7560441 C24.3844553,20.7475476 24.5530511,20.7542234 24.7133064,20.7763752 C24.8726681,20.7985269 25.024583,20.8364579 25.1684553,20.8898648 C25.311434,20.9432717 25.4466681,21.011851 25.5747532,21.0956028 C25.7022426,21.1802648 25.8219872,21.2800993 25.9339872,21.3957131 C26.0459872,21.5085959 26.1427957,21.631189 26.2259021,21.7634924 C26.3087106,21.8954924 26.377817,22.0378097 26.4323277,22.1898372 C26.487434,22.3412579 26.5282426,22.5036028 26.5559447,22.6753545 C26.5827532,22.8474097 26.5964553,23.0300855 26.5964553,23.2224717 C26.5964553,23.4804028 26.5759021,23.7219476 26.5347957,23.9477131 C26.4930936,24.1734786 26.4311362,24.3840717 26.3477319,24.579189 C26.2643277,24.7749131 26.1594766,24.9551614 26.0337745,25.121451 C25.9071787,25.2877407 25.7591362,25.4397683 25.5887532,25.5775338 Z M24.0353489,24.5421683 C24.1944128,24.5288166 24.3376894,24.4905821 24.4622,24.4304993 C24.5870085,24.3704166 24.6939447,24.288789 24.7809234,24.1877407 C24.8676043,24.0866924 24.9349234,23.9665269 24.9807957,23.8299752 C25.0257745,23.69312 25.0496043,23.5398786 25.0496043,23.3726786 C25.0496043,23.2127614 25.0257745,23.0680166 24.9807957,22.9414786 C24.9349234,22.8155476 24.8676043,22.7078234 24.7809234,22.6210372 C24.6939447,22.534251 24.5870085,22.4690097 24.4622,22.4280441 C24.3376894,22.3867752 24.1944128,22.3691752 24.0353489,22.3794924 L23.1426255,22.4365407 L23.1426255,24.6165131 L24.0353489,24.5421683 Z" id="Fill-20"></path>
                    <path d="M31.0111021,2.49006621 C31.3718255,2.53558345 31.6938255,2.63996966 31.972634,2.79685241 C32.2499532,2.95282483 32.486166,3.16159724 32.6771021,3.41528 C32.8674426,3.66835586 33.0134,3.96664552 33.1119957,4.30408 C33.2099957,4.64121103 33.2612298,5.01779034 33.2612298,5.42774897 L33.2612298,7.77158345 C33.2612298,8.18184552 33.2099957,8.54932138 33.1119957,8.86945931 C33.0134,9.18990069 32.8674426,9.46270069 32.6771021,9.68209379 C32.486166,9.90270069 32.2499532,10.0702041 31.972634,10.1785352 C31.6938255,10.2868662 31.3718255,10.3357214 31.0111021,10.3181214 L28.7365489,10.2064524 L28.7365489,2.20573517 L31.0111021,2.49006621 Z M31.9309319,7.63381793 L31.9309319,5.33185931 C31.9309319,5.14311448 31.9109745,4.9722731 31.8707617,4.82085241 C31.8314426,4.66943172 31.772166,4.53773517 31.695017,4.4278869 C31.6169745,4.31712828 31.5204638,4.22821793 31.4063787,4.16236966 C31.2922936,4.09712828 31.1603362,4.05525241 31.0111021,4.03795586 L30.1523362,3.9438869 L30.1523362,8.7122731 L31.0111021,8.76719724 C31.1603362,8.77690759 31.2922936,8.7574869 31.4063787,8.7122731 C31.5204638,8.66675586 31.6169745,8.59483862 31.695017,8.49773517 C31.772166,8.40123862 31.8314426,8.27985931 31.8707617,8.13541793 C31.9109745,7.9906731 31.9309319,7.82286621 31.9309319,7.63381793 Z" id="Fill-22"></path>
                </g>
            </g>
        </g>
    </g>
</svg>